<svg xmlns="http://www.w3.org/2000/svg" version="1.1" xmlns:xlink="http://www.w3.org/1999/xlink" xmlns:svgjs="http://svgjs.dev/svgjs" width="1000" height="1000" viewBox="0 0 1000 1000"><g transform="matrix(1,0,0,1,-0.49999999999994316,-0.49999999999994316)"><svg viewBox="0 0 280 280" data-background-color="#ffffff" preserveAspectRatio="xMidYMid meet" height="1000" width="1000" xmlns="http://www.w3.org/2000/svg" xmlns:xlink="http://www.w3.org/1999/xlink"><g id="tight-bounds" transform="matrix(1,0,0,1,0.13999999999998636,0.13999999999998636)"><svg viewBox="0 0 279.72 279.72" height="279.72" width="279.72"><g><svg viewBox="0 0 279.72 279.72" height="279.72" width="279.72"><g><svg viewBox="0 0 279.72 279.72" height="279.72" width="279.72"><g id="textblocktransform"><svg viewBox="0 0 279.72 279.72" height="279.72" width="279.72" id="textblock"><g><svg viewBox="0 0 279.72 279.72" height="279.72" width="279.72"><g transform="matrix(1,0,0,1,73.92936372216631,73.92936372216631)"><svg viewBox="0 0 131.8612725556674 131.8612725556674" height="131.8612725556674" width="131.8612725556674"><g><circle r="66" cx="65.9306362778337" cy="65.9306362778337" fill="#010c80" data-fill-palette-color="accent"></circle></g></svg></g><path d="M19.982 203.751l-0.93 0.346-3.152-8.466 0.931-0.346 0.391 1.053c0.361 0.971 0.849 1.342 1.463 1.113v0c0.088-0.033 0.423-0.282 1.005-0.748v0l5.047-4.435-3.103-8.335-6.433-0.098c-0.044 0.016-0.341 0.041-0.892 0.075-0.553 0.028-0.924 0.076-1.112 0.147-0.188 0.07-0.271 0.24-0.249 0.51 0.028 0.268 0.189 0.796 0.483 1.585v0l0.2 0.536-0.931 0.346-2.413-6.484 0.93-0.346 0.172 0.461c0.27 0.727 0.593 1.209 0.967 1.448 0.38 0.236 0.912 0.363 1.596 0.379v0l21.691 0.217c0.058 0.1 0.292 0.237 0.699 0.414 0.402 0.179 0.808 0.331 1.218 0.456 0.408 0.119 0.637 0.169 0.688 0.151 0.044-0.016 0.072-0.037 0.083-0.063v0l0.303 0.411-18.273 16.066c-0.41 0.431-0.697 0.819-0.86 1.165-0.155 0.35-0.143 0.766 0.037 1.249v0zM23.221 183.942l2.682 7.207 8.134-7.093zM20.989 221.682l-0.895 0.573-3.84-6.006 0.895-0.573 0.227 0.355c0.277 0.434 0.553 0.71 0.827 0.828 0.268 0.122 0.484 0.155 0.646 0.099 0.159-0.062 0.396-0.194 0.711-0.396v0l15.399-9.846c0.912-0.583 1.001-1.449 0.266-2.598v0l0.769-0.491c0.241 0.377 0.776 0.872 1.604 1.485 0.828 0.613 1.49 1.027 1.985 1.242v0l0.404 0.503-3.742 2.393c1.395-0.313 2.751-0.232 4.07 0.242 1.315 0.468 2.41 1.387 3.285 2.755 0.875 1.368 1.125 2.74 0.75 4.114-0.378 1.369-1.322 2.535-2.831 3.5v0c-2.793 1.786-5.584 2.539-8.373 2.259-2.792-0.285-4.86-1.478-6.203-3.578v0c-0.468-0.732-0.777-1.649-0.927-2.752v0l-5.051 3.23c-0.282 0.18-0.477 0.333-0.587 0.459v0c-0.316 0.337-0.24 0.872 0.228 1.603v0zM33.804 210.811v0l-5.288 3.381c-0.068 0.154-0.153 0.375-0.254 0.662-0.096 0.284-0.14 0.78-0.132 1.488 0.005 0.703 0.179 1.322 0.521 1.857v0c0.925 1.447 2.377 2.217 4.356 2.308 1.984 0.088 4.026-0.54 6.127-1.882v0c1.171-0.749 1.908-1.731 2.209-2.948 0.299-1.207 0.103-2.351-0.588-3.432-0.691-1.081-1.909-1.664-3.652-1.747-1.743-0.083-2.843 0.021-3.299 0.313zM37.883 243.132l-0.768 0.734-4.923-5.156 0.768-0.734 0.291 0.305c0.355 0.372 0.679 0.59 0.971 0.653 0.287 0.068 0.504 0.059 0.653-0.027 0.144-0.091 0.351-0.266 0.622-0.525v0l13.219-12.623c0.783-0.748 0.704-1.615-0.238-2.6v0l0.66-0.631c0.309 0.324 0.929 0.707 1.86 1.15 0.931 0.442 1.659 0.721 2.186 0.837v0l0.494 0.416-3.213 3.067c1.309-0.575 2.655-0.757 4.041-0.545 1.38 0.207 2.631 0.897 3.753 2.072 1.122 1.175 1.631 2.472 1.527 3.893-0.108 1.416-0.81 2.742-2.106 3.98v0c-2.398 2.29-4.992 3.565-7.782 3.827-2.795 0.257-5.054-0.516-6.776-2.32v0c-0.6-0.628-1.079-1.469-1.438-2.522v0l-4.336 4.141c-0.242 0.231-0.404 0.419-0.488 0.563v0c-0.245 0.391-0.068 0.901 0.532 1.53v0zM48.37 229.999v0l-4.539 4.335c-0.037 0.165-0.078 0.398-0.123 0.699-0.04 0.297 0.012 0.792 0.157 1.486 0.14 0.689 0.429 1.263 0.868 1.722v0c1.186 1.242 2.759 1.718 4.718 1.427 1.964-0.295 3.848-1.304 5.651-3.025v0c1.005-0.96 1.539-2.066 1.601-3.317 0.062-1.242-0.351-2.327-1.236-3.255-0.886-0.928-2.193-1.266-3.92-1.013-1.727 0.253-2.786 0.567-3.177 0.941zM71.02 259.489l-0.653 0.926-4.155-2.928 2.357-3.344c-1.174 0.808-2.461 1.246-3.859 1.316-1.4 0.06-2.766-0.38-4.1-1.319-1.339-0.943-2.089-2.118-2.25-3.524-0.157-1.402 0.281-2.836 1.313-4.3v0c1.91-2.71 4.203-4.467 6.879-5.271 2.682-0.8 5.053-0.474 7.113 0.977v0c0.459 0.323 1.092 1.056 1.898 2.197v0l4.066-5.769c0.258-0.366 0.319-0.72 0.183-1.061-0.13-0.337-0.504-0.723-1.121-1.159v0l0.566-0.803c0.404 0.285 1.075 0.598 2.012 0.94 0.942 0.345 1.656 0.517 2.139 0.514v0l0.606 0.255-14.11 20.021c-0.258 0.366-0.372 0.678-0.342 0.937 0.032 0.268 0.327 0.598 0.884 0.991v0zM70.238 251.775v0l3.615-5.13c0.008-0.174 0.003-0.411-0.015-0.71-0.018-0.299-0.165-0.775-0.441-1.427-0.272-0.658-0.668-1.17-1.187-1.536v0c-1.404-0.99-3.038-1.148-4.903-0.475-1.87 0.669-3.523 2.023-4.959 4.061v0c-0.801 1.136-1.12 2.314-0.957 3.533 0.159 1.224 0.772 2.212 1.837 2.963 1.065 0.751 2.423 0.837 4.074 0.258 1.645-0.582 2.624-1.095 2.936-1.537zM93.012 266.726v0l0.322 0.841c-2.526 1.896-5.565 2.033-9.116 0.412v0c-1.648-0.752-2.724-2.122-3.227-4.108-0.498-1.983-0.336-3.875 0.486-5.675v0c1.105-2.42 2.835-4.132 5.189-5.136 2.36-1.002 4.666-0.989 6.915 0.038v0c1.07 0.489 1.868 1.228 2.393 2.217v0c0.943 1.797 1.003 3.596 0.182 5.396v0c-0.117 0.255-0.307 0.543-0.571 0.863-0.264 0.32-0.429 0.465-0.496 0.435v0l-10.479-4.399c-0.761 1.666-0.942 3.446-0.543 5.34 0.408 1.891 1.36 3.178 2.856 3.861v0c1.07 0.489 2.161 0.722 3.273 0.701 1.106-0.024 2.045-0.286 2.816-0.786zM85.516 256.47v0l7.661 3.112c0.043 0.019 0.151-0.162 0.326-0.545v0c0.508-1.113 0.545-2.055 0.112-2.826-0.443-0.768-1.236-1.413-2.379-1.935-1.143-0.522-2.24-0.597-3.293-0.225-1.052 0.372-1.861 1.178-2.427 2.419zM107.189 275.767l-0.588-0.002-1.763-15.196c-0.071-0.575-0.197-1.013-0.378-1.312-0.181-0.299-0.524-0.512-1.03-0.637v0l-0.477-0.119 0.253-1.021 6.375 1.578-0.321 1.005-0.351-0.087c-0.681-0.169-1.073-0.045-1.176 0.37v0c-0.067 0.273-0.09 0.46-0.067 0.562v0l1.341 11.022 6.346-8.902c0.278-0.317 0.443-0.579 0.494-0.787 0.05-0.201-0.036-0.367-0.259-0.498-0.222-0.131-0.759-0.301-1.608-0.511v0l-0.409-0.102 0.253-1.022 6.443 1.596-0.253 1.022-0.273-0.068c-0.733-0.182-1.281-0.193-1.644-0.035-0.368 0.15-0.757 0.512-1.167 1.085v0l-7.383 10.463c-0.182-0.045-0.61 0.169-1.285 0.642-0.677 0.48-1.034 0.797-1.073 0.954zM137.738 275.465v0l0.592 0.679c-1.717 2.651-4.522 3.828-8.414 3.531v0c-1.806-0.138-3.288-1.052-4.446-2.742-1.151-1.69-1.652-3.521-1.502-5.494v0c0.202-2.653 1.235-4.856 3.098-6.611 1.87-1.754 4.038-2.538 6.504-2.35v0c1.173 0.089 2.177 0.508 3.012 1.255v0c1.505 1.362 2.182 3.029 2.031 5.002v0c-0.021 0.28-0.101 0.616-0.237 1.007-0.137 0.392-0.242 0.585-0.316 0.579v0l-11.353-0.513c-0.139 1.826 0.305 3.559 1.333 5.199 1.035 1.634 2.372 2.514 4.012 2.639v0c1.173 0.089 2.278-0.068 3.314-0.471 1.03-0.404 1.821-0.974 2.372-1.71zM127.164 268.425v0l8.264 0.278c0.047 0.004 0.086-0.205 0.118-0.624v0c0.093-1.22-0.197-2.117-0.87-2.691-0.681-0.568-1.647-0.9-2.901-0.996-1.253-0.096-2.309 0.213-3.167 0.925-0.859 0.712-1.34 1.748-1.444 3.108zM154.188 278.056l0.07 0.99-7.041 0.497-0.07-0.99 0.49-0.035c0.513-0.036 0.882-0.173 1.107-0.41 0.218-0.236 0.308-0.625 0.269-1.164v0l-1.467-20.773c-0.032-0.447-0.208-0.759-0.528-0.938-0.321-0.178-0.855-0.241-1.602-0.188v0l-0.069-0.98c0.467-0.033 1.178-0.214 2.133-0.543 0.955-0.329 1.646-0.649 2.073-0.96v0l0.62-0.185 1.716 24.293c0.026 0.373 0.065 0.642 0.117 0.806 0.045 0.158 0.19 0.312 0.435 0.462 0.245 0.144 0.614 0.198 1.107 0.163v0zM170.326 276.52v0c-2.018 0.468-3.88 0.104-5.584-1.093-1.698-1.198-2.781-2.806-3.25-4.824v0c-0.595-2.565-0.141-5 1.363-7.305 1.504-2.304 3.333-3.706 5.488-4.206 2.155-0.5 4.067-0.14 5.736 1.078 1.675 1.217 2.744 2.822 3.206 4.815v0c0.58 2.5 0.167 4.908-1.238 7.224-1.411 2.317-3.318 3.754-5.721 4.311zM163.465 268.19c0.494 2.129 1.552 3.75 3.175 4.862 1.622 1.106 3.24 1.472 4.855 1.097 1.615-0.374 2.741-1.274 3.378-2.697 0.636-1.431 0.805-2.787 0.508-4.07v0c-0.451-1.947-1.449-3.51-2.992-4.689-1.541-1.173-3.171-1.56-4.89-1.161-1.719 0.399-2.897 1.282-3.533 2.651-0.638 1.362-0.805 2.698-0.501 4.007zM197.477 274.463l0.431 0.972-6.516 2.891-0.431-0.971 0.385-0.171c0.47-0.209 0.785-0.44 0.943-0.693 0.161-0.247 0.226-0.455 0.195-0.624-0.037-0.166-0.132-0.42-0.284-0.762v0l-7.414-16.706c-0.439-0.99-1.282-1.208-2.528-0.655v0l-0.37-0.834c0.409-0.182 0.979-0.636 1.71-1.362 0.731-0.726 1.24-1.318 1.527-1.775v0l0.558-0.324 1.801 4.059c-0.099-1.426 0.185-2.755 0.853-3.987 0.661-1.229 1.734-2.173 3.218-2.832 1.485-0.659 2.878-0.7 4.18-0.122 1.296 0.58 2.307 1.689 3.034 3.326v0c1.345 3.03 1.669 5.903 0.972 8.618-0.703 2.718-2.193 4.582-4.472 5.594v0c-0.794 0.352-1.747 0.52-2.859 0.501v0l2.432 5.48c0.136 0.305 0.257 0.522 0.365 0.65v0c0.286 0.363 0.825 0.369 1.619 0.016v0zM188.66 260.157v0l2.546 5.736c0.142 0.09 0.348 0.208 0.616 0.352 0.266 0.138 0.75 0.256 1.452 0.354 0.696 0.101 1.334 0.022 1.914-0.235v0c1.57-0.697 2.549-2.016 2.938-3.959 0.386-1.948 0.073-4.062-0.938-6.34v0c-0.564-1.271-1.424-2.147-2.582-2.628-1.148-0.478-2.309-0.456-3.481 0.064-1.173 0.521-1.932 1.636-2.277 3.347-0.345 1.711-0.408 2.814-0.188 3.309zM233.172 241.014l0.605 0.787-4.864 3.741-0.605-0.787 0.111-0.086c0.207-0.159 0.301-0.392 0.284-0.699-0.016-0.317-0.138-0.623-0.366-0.92v0l-5.464-7.105c-0.575-0.747-1.232-1.224-1.972-1.43-0.736-0.201-1.388-0.084-1.955 0.352-0.567 0.436-0.989 0.967-1.267 1.594-0.277 0.626-0.414 1.238-0.411 1.833-0.006 0.595 0.038 1.185 0.134 1.769v0c0.182 1.015 0.41 1.7 0.683 2.056v0l4.217 5.484c0.57 0.742 1.266 0.797 2.087 0.165v0l0.509-0.391 0.605 0.787-4.872 3.746-0.605-0.787 0.167-0.128c0.17-0.13 0.246-0.349 0.229-0.656-0.016-0.317-0.138-0.623-0.366-0.92v0l-5.464-7.106c-0.575-0.747-1.227-1.228-1.957-1.442-0.726-0.209-1.391-0.081-1.995 0.383-0.609 0.469-1.033 1.107-1.272 1.914-0.239 0.808-0.318 1.593-0.236 2.358v0c0.188 1.55 0.448 2.539 0.777 2.968v0l4.089 5.317c0.228 0.297 0.406 0.501 0.535 0.613 0.124 0.107 0.33 0.155 0.618 0.145 0.289-0.02 0.626-0.178 1.013-0.475v0l0.508-0.391 0.605 0.787-5.651 4.345-0.605-0.787 0.445-0.342c0.503-0.387 0.763-0.718 0.781-0.992 0.007-0.276-0.132-0.599-0.417-0.97v0l-6.454-8.392c-0.273-0.355-0.587-0.522-0.943-0.502-0.355 0.02-0.84 0.267-1.455 0.739v0l-0.599-0.779c0.371-0.285 0.829-0.857 1.375-1.715 0.545-0.849 0.921-1.543 1.13-2.083v0l0.423-0.502 2.751 3.576c-0.433-1.682-0.504-3.112-0.213-4.289 0.301-1.176 1.104-2.265 2.407-3.268v0c0.599-0.46 1.216-0.737 1.853-0.83 0.646-0.092 1.237-0.02 1.774 0.217v0c0.929 0.441 1.728 1.057 2.396 1.85v0c-0.532-1.58-0.639-2.974-0.319-4.181 0.32-1.207 1.142-2.32 2.467-3.339v0c0.673-0.517 1.357-0.807 2.051-0.869 0.694-0.062 1.322 0.063 1.881 0.375v0c0.974 0.532 1.761 1.188 2.36 1.966v0l5.813 7.559c0.2 0.26 0.369 0.441 0.508 0.545v0c0.364 0.276 0.891 0.15 1.579-0.38v0zM245.623 221.31v0l0.895-0.1c1.2 2.922 0.57 5.897-1.892 8.927v0c-1.142 1.406-2.738 2.103-4.787 2.091-2.045-0.017-3.835-0.649-5.371-1.896v0c-2.065-1.678-3.287-3.782-3.667-6.313-0.376-2.536 0.215-4.764 1.774-6.684v0c0.742-0.913 1.658-1.5 2.748-1.759v0c1.976-0.461 3.732-0.068 5.268 1.18v0c0.218 0.177 0.449 0.433 0.692 0.769 0.244 0.336 0.343 0.532 0.296 0.589v0l-6.891 9.038c1.421 1.155 3.099 1.777 5.033 1.867 1.933 0.08 3.417-0.517 4.454-1.794v0c0.742-0.913 1.242-1.91 1.501-2.992 0.255-1.076 0.237-2.051-0.053-2.923zM233.812 225.988v0l4.938-6.633c0.03-0.036-0.119-0.187-0.446-0.453v0c-0.949-0.771-1.852-1.044-2.708-0.817-0.855 0.236-1.678 0.841-2.47 1.816-0.792 0.975-1.141 2.019-1.045 3.13 0.096 1.111 0.673 2.097 1.731 2.957zM262.176 199.127l0.875 0.47-2.877 5.352-0.874-0.47 0.071-0.133c0.12-0.224 0.111-0.475-0.027-0.754-0.147-0.276-0.386-0.503-0.716-0.681v0l-7.895-4.243c-0.936-0.503-1.766-0.661-2.489-0.473-0.726 0.179-1.307 0.675-1.744 1.487v0c-0.623 1.16-0.553 2.518 0.212 4.075 0.764 1.557 1.459 2.503 2.082 2.838v0l5.908 3.176c0.33 0.177 0.576 0.291 0.739 0.34 0.157 0.047 0.365 0.006 0.623-0.121 0.255-0.136 0.498-0.419 0.729-0.848v0l0.304-0.565 0.874 0.47-3.375 6.278-0.874-0.469 0.266-0.495c0.301-0.559 0.402-0.967 0.305-1.225-0.106-0.254-0.365-0.492-0.777-0.713v0l-9.326-5.013c-0.394-0.212-0.75-0.236-1.065-0.072-0.316 0.164-0.657 0.588-1.025 1.271v0l-0.865-0.466c0.222-0.412 0.405-1.121 0.552-2.127 0.149-0.997 0.208-1.785 0.177-2.364v0l0.18-0.631 3.974 2.136c-1.051-1.179-1.665-2.458-1.842-3.836-0.181-1.372 0.113-2.773 0.883-4.204v0c0.402-0.748 0.907-1.292 1.515-1.633 0.608-0.341 1.233-0.487 1.874-0.438v0c1.107 0.087 2.093 0.362 2.959 0.828v0l8.398 4.514c0.288 0.155 0.517 0.252 0.687 0.289v0c0.442 0.109 0.869-0.22 1.281-0.985v0zM267.417 180.712v0l0.891-0.013c0.611 2.058 0.588 4.084-0.067 6.078v0c-0.234 0.711-0.693 1.239-1.376 1.585-0.683 0.345-1.447 0.379-2.292 0.101v0l-11.867-3.903-0.639 1.943-1.41-0.464 0.241-0.733c0.242-0.737 0.021-1.573-0.663-2.508-0.686-0.929-1.407-1.518-2.163-1.767v0l0.285-0.867 3.819 1.256 1.501-4.562 1.409 0.464-1.08 3.286c-0.28 0.851-0.02 1.408 0.78 1.67v0l9.591 3.155c1.473 0.484 2.386 0.19 2.739-0.883v0c0.397-1.206 0.497-2.486 0.301-3.838z" fill="#0080ff" data-fill-palette-color="primary"></path><path d="M33.439 112.66V112.66C32.695 112.256 31.949 111.829 31.201 111.38 30.446 110.929 29.621 110.403 28.728 109.803 27.834 109.204 26.821 108.488 25.691 107.655 24.558 106.829 23.247 105.845 21.758 104.701V104.701C21.668 105.038 21.576 105.406 21.485 105.806 21.395 106.2 21.302 106.564 21.205 106.898V106.898C20.505 106.651 20.062 106.2 19.875 105.546 19.688 104.891 19.66 104.108 19.791 103.197V103.197C19.513 103 19.299 102.835 19.147 102.704 18.999 102.581 18.808 102.428 18.575 102.246 18.341 102.064 18.021 101.806 17.615 101.471 17.205 101.127 16.618 100.654 15.853 100.05 15.081 99.444 14.072 98.651 12.823 97.671V97.671C12.732 97.589 12.541 97.436 12.251 97.213 11.964 96.984 11.675 96.818 11.385 96.715V96.715C11.215 96.655 11.085 96.641 10.996 96.673 10.913 96.708 10.841 96.81 10.781 96.98V96.98C10.625 97.421 10.663 97.935 10.896 98.52 11.134 99.108 11.487 99.694 11.954 100.277 12.422 100.861 12.942 101.374 13.515 101.818 14.08 102.266 14.614 102.579 15.119 102.757V102.757C15.289 102.818 15.492 102.865 15.728 102.899 15.964 102.932 16.292 102.949 16.71 102.948V102.948C16.385 103.868 15.946 104.457 15.394 104.716 14.848 104.976 14.26 104.995 13.63 104.773V104.773C12.886 104.51 12.222 104.023 11.636 103.313 11.051 102.602 10.572 101.781 10.2 100.848 9.832 99.924 9.597 98.994 9.496 98.057 9.392 97.127 9.461 96.322 9.702 95.642V95.642C9.949 94.942 10.304 94.529 10.767 94.402 11.233 94.269 11.696 94.284 12.156 94.446V94.446C12.395 94.531 12.624 94.644 12.844 94.785 13.063 94.927 13.272 95.068 13.47 95.209V95.209L20.489 100.382C20.557 100.108 20.64 99.836 20.735 99.565 20.831 99.294 20.929 99.017 21.03 98.733V98.733C21.408 97.662 21.786 96.664 22.162 95.741 22.538 94.818 22.925 93.934 23.323 93.089V93.089C21.683 91.892 20.341 90.896 19.296 90.102 18.254 89.3 17.397 88.615 16.727 88.044 16.055 87.481 15.466 86.971 14.96 86.516V86.516C14.813 86.371 14.62 86.165 14.382 85.896 14.15 85.63 13.974 85.295 13.854 84.891 13.739 84.496 13.774 84.037 13.959 83.514V83.514C14.621 84.067 15.511 84.768 16.629 85.617 17.74 86.464 18.959 87.356 20.287 88.293 21.614 89.23 22.934 90.14 24.245 91.022V91.022C24.355 90.714 24.523 90.287 24.751 89.744 24.978 89.201 25.178 88.686 25.35 88.201V88.201C25.783 89.12 25.989 89.87 25.968 90.451 25.947 91.032 25.86 91.54 25.706 91.975V91.975C26.627 92.577 27.51 93.138 28.355 93.656 29.206 94.177 30.002 94.643 30.743 95.053V95.053C32.05 95.807 33.2 96.426 34.191 96.911 35.188 97.398 36.015 97.758 36.67 97.99V97.99C37.017 98.112 37.334 98.207 37.622 98.273 37.905 98.338 38.186 98.395 38.466 98.444V98.444C37.958 99.519 37.422 100.184 36.857 100.438 36.286 100.69 35.465 100.626 34.393 100.247V100.247C33.889 100.069 33.345 99.834 32.76 99.542 32.176 99.25 31.505 98.861 30.749 98.374V98.374C29.998 97.91 29.155 97.338 28.218 96.66 27.279 95.987 26.187 95.186 24.941 94.257V94.257C24.471 95.586 24.091 96.693 23.8 97.575 23.518 98.454 23.27 99.224 23.057 99.886 22.851 100.55 22.663 101.221 22.494 101.899V101.899C22.573 101.955 22.739 102.078 22.992 102.266 23.246 102.448 23.694 102.777 24.334 103.252 24.981 103.728 25.927 104.432 27.172 105.361 28.417 106.291 30.087 107.544 32.18 109.121V109.121C32.902 109.646 33.329 110.264 33.46 110.977 33.59 111.69 33.583 112.251 33.439 112.66ZM47.077 78.155V78.155C46.612 78.784 45.937 79.083 45.053 79.052 44.173 79.017 43.352 78.717 42.589 78.152V78.152C42.062 77.762 41.509 77.224 40.928 76.537 40.342 75.845 39.813 75.117 39.34 74.351 38.867 73.585 38.515 72.893 38.284 72.272 38.052 71.652 38.026 71.221 38.205 70.98V70.98C38.3 70.851 38.517 70.703 38.856 70.538 39.198 70.368 39.547 70.256 39.902 70.203V70.203C40.052 70.629 40.326 71.214 40.724 71.958 41.122 72.701 41.594 73.445 42.14 74.191 42.682 74.941 43.241 75.529 43.816 75.954V75.954C43.891 76.01 44.078 76.128 44.378 76.308 44.677 76.488 44.989 76.61 45.314 76.677 45.64 76.743 45.906 76.636 46.113 76.357V76.357C46.347 76.04 46.428 75.571 46.354 74.951 46.277 74.337 46.105 73.636 45.839 72.849 45.573 72.062 45.259 71.251 44.895 70.417 44.527 69.588 44.153 68.807 43.771 68.076 43.389 67.345 43.064 66.734 42.794 66.244V66.244C42.934 66.089 43.141 65.905 43.415 65.692 43.689 65.479 43.96 65.314 44.229 65.197 44.508 65.079 44.76 65.104 44.986 65.271V65.271C45.04 65.311 45.202 65.568 45.474 66.044 45.741 66.515 46.066 67.076 46.45 67.726 46.838 68.37 47.259 68.998 47.713 69.609 48.168 70.219 48.621 70.692 49.072 71.025V71.025C49.33 71.216 49.593 71.332 49.862 71.373 50.136 71.418 50.385 71.29 50.608 70.989V70.989C50.898 70.597 51.064 70.001 51.107 69.202 51.154 68.396 51.055 67.458 50.808 66.386 50.572 65.313 50.151 64.207 49.546 63.07V63.07L50.194 62.901C50.893 64.058 51.402 65.258 51.722 66.501 52.041 67.743 52.153 68.907 52.057 69.991 51.965 71.071 51.657 71.965 51.132 72.675V72.675C50.73 73.217 50.304 73.529 49.853 73.611 49.401 73.693 48.941 73.635 48.472 73.438 48.001 73.231 47.556 72.984 47.136 72.698V72.698C47.044 72.631 46.948 72.559 46.845 72.484 46.743 72.408 46.655 72.343 46.579 72.287V72.287C46.845 72.974 47.077 73.682 47.277 74.412 47.476 75.133 47.578 75.82 47.585 76.473 47.592 77.127 47.423 77.688 47.077 78.155ZM71.911 62.485V62.485C71.463 62.845 70.935 63.047 70.326 63.09 69.723 63.13 69.174 62.842 68.68 62.227V62.227C68.215 61.649 67.963 60.994 67.924 60.262 67.888 59.536 67.99 58.755 68.228 57.921 68.465 57.095 68.771 56.266 69.147 55.432 69.513 54.597 69.878 53.797 70.242 53.033V53.033C70.046 52.385 69.815 51.708 69.549 51.004 69.279 50.295 68.963 49.55 68.601 48.769V48.769C68.612 50.073 68.477 51.266 68.198 52.348 67.928 53.431 67.432 54.264 66.708 54.846V54.846C65.984 55.428 65.207 55.636 64.379 55.47 63.551 55.304 62.802 54.805 62.132 53.971V53.971C61.365 53.018 60.882 51.932 60.681 50.712 60.482 49.483 60.499 48.234 60.731 46.966 60.955 45.697 61.353 44.528 61.925 43.459 62.493 42.394 63.175 41.541 63.972 40.9V40.9C64.55 40.435 65.066 40.192 65.52 40.17 65.979 40.143 66.318 40.266 66.536 40.537V40.537C66.711 40.755 66.785 40.98 66.755 41.209 66.73 41.435 66.708 41.573 66.689 41.623V41.623C66.343 41.566 66.051 41.582 65.813 41.67 65.576 41.759 65.329 41.905 65.074 42.111V42.111C64.371 42.676 63.853 43.419 63.52 44.338 63.191 45.263 63.029 46.234 63.032 47.252 63.04 48.275 63.166 49.237 63.411 50.138 63.66 51.035 64.003 51.755 64.439 52.296V52.296C64.732 52.661 65.035 52.872 65.347 52.93 65.659 52.988 65.932 52.922 66.167 52.734V52.734C66.672 52.327 67.023 51.505 67.219 50.266 67.411 49.023 67.464 47.664 67.376 46.19V46.19C67.296 46.015 67.222 45.86 67.156 45.724 67.086 45.583 67.019 45.453 66.956 45.332V45.332C66.551 44.465 66.338 43.757 66.317 43.208 66.29 42.664 66.504 42.209 66.957 41.845V41.845C67.045 41.773 67.166 41.694 67.318 41.606 67.466 41.512 67.635 41.419 67.826 41.326V41.326C68.086 41.649 68.427 42.254 68.848 43.141 69.261 44.027 69.709 45.086 70.194 46.318 70.674 47.544 71.141 48.824 71.595 50.157V50.157C71.964 49.474 72.268 48.69 72.507 47.803 72.742 46.911 72.858 45.968 72.857 44.974 72.861 43.976 72.693 43.005 72.353 42.06V42.06L73.227 42.155C73.606 43.223 73.767 44.341 73.712 45.509 73.66 46.682 73.482 47.799 73.177 48.859 72.876 49.925 72.534 50.834 72.153 51.587V51.587C72.624 53.164 72.971 54.673 73.195 56.114 73.419 57.555 73.444 58.829 73.272 59.937 73.104 61.041 72.651 61.89 71.911 62.485ZM70.796 61.323V61.323C71.125 61.059 71.325 60.392 71.399 59.32 71.473 58.249 71.256 56.716 70.75 54.722V54.722C70.343 55.581 69.999 56.406 69.718 57.198 69.432 57.994 69.27 58.721 69.232 59.378 69.195 60.025 69.344 60.557 69.679 60.974V60.974C69.868 61.208 70.066 61.353 70.274 61.409 70.482 61.465 70.656 61.436 70.796 61.323ZM91.123 38.803V38.803C90.177 39.242 89.387 39.232 88.755 38.774 88.113 38.313 87.623 37.715 87.282 36.982V36.982C86.97 36.309 86.757 35.571 86.643 34.77 86.529 33.968 86.511 33.176 86.591 32.395 86.68 31.617 86.865 30.938 87.149 30.357 87.428 29.785 87.799 29.392 88.26 29.178V29.178C88.411 29.108 88.598 29.051 88.821 29.006 89.04 28.971 89.216 28.985 89.349 29.049V29.049C89.247 29.479 89.17 29.99 89.12 30.581 89.073 31.162 89.06 31.762 89.081 32.378 89.096 32.998 89.161 33.598 89.275 34.178 89.399 34.762 89.563 35.275 89.768 35.718V35.718C89.962 36.136 90.202 36.445 90.486 36.645 90.77 36.845 91.112 36.852 91.513 36.666V36.666C91.907 36.483 92.279 36.038 92.628 35.33 92.975 34.617 93.264 33.849 93.494 33.028V33.028C92.54 32.734 91.748 32.29 91.12 31.698 90.485 31.108 89.93 30.301 89.454 29.276V29.276C89.249 28.833 89.126 28.275 89.086 27.601 89.043 26.936 89.171 26.276 89.472 25.621 89.769 24.974 90.339 24.456 91.181 24.065V24.065C92.085 23.646 92.835 23.603 93.432 23.938 94.036 24.269 94.499 24.784 94.823 25.481V25.481C95.183 26.257 95.38 27.223 95.415 28.378 95.459 29.537 95.396 30.679 95.225 31.804V31.804C95.539 31.814 95.863 31.741 96.196 31.586V31.586C96.511 31.44 96.855 31.188 97.228 30.831 97.603 30.48 97.919 30.035 98.177 29.495 98.441 28.953 98.561 28.33 98.537 27.626V27.626L99.3 27.77C99.331 29.06 99.078 30.127 98.542 30.973 98 31.821 97.362 32.416 96.628 32.756V32.756C96.356 32.883 96.072 32.985 95.776 33.063 95.478 33.135 95.194 33.182 94.924 33.204V33.204C94.6 34.379 94.12 35.497 93.485 36.558 92.856 37.616 92.068 38.364 91.123 38.803ZM93.844 31.638V31.638C94.013 30.668 94.081 29.679 94.048 28.67 94.011 27.67 93.827 26.813 93.495 26.097V26.097C93.27 25.612 93.034 25.294 92.787 25.144 92.538 24.987 92.264 24.977 91.967 25.115V25.115C91.573 25.298 91.296 25.773 91.136 26.54 90.979 27.298 91.101 28.107 91.5 28.968V28.968C91.705 29.411 92.033 29.911 92.483 30.468 92.934 31.026 93.387 31.416 93.844 31.638ZM147.859 27.773V27.773C146.563 27.734 145.381 27.353 144.313 26.631 143.245 25.916 142.407 24.894 141.799 23.565 141.191 22.236 140.915 20.659 140.971 18.835V18.835C141.026 17.051 141.359 15.253 141.969 13.439 142.58 11.626 143.398 9.905 144.425 8.278 145.444 6.651 146.602 5.209 147.898 3.951 149.187 2.694 150.544 1.709 151.97 0.997 153.39 0.291 154.807-0.04 156.224 0.004V0.004C157.239 0.035 158.042 0.25 158.631 0.649 159.221 1.049 159.64 1.566 159.888 2.203 160.136 2.832 160.249 3.508 160.227 4.229V4.229C160.202 5.038 160.034 5.842 159.722 6.641 159.403 7.447 158.988 8.11 158.477 8.629 157.96 9.142 157.4 9.389 156.799 9.37V9.37C156.525 9.362 156.274 9.274 156.045 9.106 155.816 8.939 155.595 8.631 155.381 8.183V8.183C155.736 7.96 156.136 7.568 156.581 7.006 157.026 6.438 157.42 5.805 157.762 5.106 158.112 4.408 158.295 3.782 158.312 3.228V3.228C158.326 2.767 158.194 2.375 157.916 2.052 157.632 1.729 157.156 1.557 156.488 1.537V1.537C155.445 1.505 154.361 1.859 153.235 2.6 152.116 3.348 151.038 4.349 150.004 5.601 148.962 6.853 148.019 8.262 147.176 9.827 146.325 11.386 145.644 12.987 145.133 14.63 144.621 16.272 144.342 17.835 144.297 19.318V19.318C144.232 21.423 144.64 23.074 145.519 24.271 146.392 25.468 147.466 26.086 148.742 26.125V26.125C149.691 26.154 150.575 25.88 151.395 25.304 152.209 24.727 152.938 23.957 153.583 22.994 154.228 22.024 154.755 20.967 155.165 19.822 155.567 18.678 155.833 17.549 155.961 16.436V16.436C155.383 16.305 154.788 16.2 154.175 16.121 153.568 16.048 152.928 16.002 152.253 15.981V15.981C151.886 15.97 151.515 15.962 151.14 15.957 150.773 15.959 150.378 15.967 149.956 15.981V15.981C150.188 15.172 150.537 14.585 151.003 14.218 151.469 13.851 152.073 13.679 152.815 13.702V13.702C153.509 13.723 154.204 13.855 154.899 14.097 155.6 14.339 156.311 14.598 157.032 14.874 157.752 15.15 158.457 15.379 159.147 15.561V15.561L158.773 16.633C158.313 17.889 157.937 18.938 157.644 19.778 157.357 20.612 157.135 21.324 156.976 21.914 156.818 22.498 156.708 23.026 156.647 23.499 156.585 23.972 156.547 24.465 156.531 24.98V24.98C156.517 25.441 156.516 25.919 156.527 26.414 156.532 26.916 156.533 27.524 156.531 28.24V28.24C155.846 28.125 155.338 27.909 155.007 27.591 154.682 27.267 154.473 26.896 154.379 26.479 154.291 26.055 154.254 25.646 154.266 25.251V25.251C154.269 25.138 154.273 25.024 154.276 24.911 154.28 24.79 154.294 24.674 154.317 24.561V24.561C153.478 25.532 152.521 26.318 151.446 26.92 150.378 27.53 149.182 27.814 147.859 27.773ZM176.374 30.261V30.261C175.652 30.017 175.103 29.564 174.727 28.901 174.353 28.232 174.329 27.416 174.654 26.453V26.453C174.912 25.687 175.369 24.91 176.023 24.121 176.681 23.342 177.464 22.619 178.374 21.952 179.285 21.279 180.257 20.718 181.29 20.27 182.315 19.825 183.355 19.534 184.41 19.397 185.457 19.263 186.43 19.348 187.329 19.652V19.652C188.273 19.97 188.993 20.481 189.489 21.185 189.983 21.895 190.098 22.642 189.833 23.427V23.427C189.632 24.023 189.278 24.383 188.77 24.508 188.264 24.626 187.745 24.536 187.211 24.236V24.236C187.322 24.054 187.427 23.868 187.527 23.676 187.625 23.49 187.71 23.29 187.783 23.074V23.074C187.932 22.631 187.98 22.206 187.927 21.8 187.869 21.386 187.556 21.082 186.986 20.89V20.89C186.371 20.683 185.674 20.68 184.893 20.882 184.119 21.087 183.327 21.426 182.518 21.901 181.708 22.375 180.938 22.934 180.206 23.576 179.473 24.224 178.847 24.888 178.328 25.566 177.804 26.243 177.438 26.888 177.231 27.503V27.503C176.993 28.206 177.128 28.642 177.635 28.813V28.813C178.141 28.984 178.785 28.927 179.566 28.64 180.347 28.353 181.177 27.942 182.057 27.406 182.929 26.868 183.782 26.306 184.615 25.719 185.454 25.135 186.172 24.64 186.767 24.234V24.234C186.875 24.144 186.983 24.117 187.091 24.153V24.153C187.171 24.208 187.325 24.317 187.552 24.478 187.78 24.639 187.976 24.833 188.14 25.057 188.308 25.29 188.352 25.527 188.271 25.768V25.768C188.198 25.983 188.012 26.231 187.713 26.511 187.408 26.789 187.06 27.088 186.67 27.407 186.28 27.727 185.924 28.059 185.604 28.402 185.277 28.743 185.051 29.101 184.925 29.475V29.475C184.828 29.76 184.817 30.055 184.89 30.362 184.956 30.667 185.164 30.878 185.512 30.995V30.995C186.044 31.175 186.916 31.035 188.129 30.577 189.348 30.121 190.767 29.125 192.386 27.59V27.59L192.801 28.429C191.876 29.436 190.892 30.271 189.849 30.935 188.807 31.599 187.79 32.053 186.797 32.297 185.814 32.536 184.904 32.515 184.068 32.233V32.233C183.169 31.929 182.597 31.419 182.352 30.702 182.107 29.984 182.074 29.289 182.252 28.615V28.615C182.267 28.571 182.279 28.536 182.287 28.51 182.294 28.491 182.301 28.469 182.31 28.444V28.444C181.072 29.205 179.983 29.768 179.041 30.134 178.099 30.501 177.21 30.543 176.374 30.261ZM208.775 43.871V43.871C208.055 43.408 207.591 42.845 207.383 42.179 207.185 41.511 207.291 40.857 207.703 40.215V40.215C208.053 39.67 208.563 39.171 209.234 38.72 209.911 38.273 210.584 37.836 211.256 37.409 211.923 36.988 212.407 36.544 212.707 36.077V36.077C212.996 35.627 213.091 35.156 212.994 34.664 212.896 34.173 212.715 33.707 212.45 33.267V33.267C211.336 34.061 210.186 34.788 209 35.448 207.823 36.106 206.886 36.613 206.189 36.968V36.968L206.298 35.834C206.898 35.505 207.72 35.016 208.764 34.368 209.813 33.723 210.914 32.956 212.064 32.066V32.066C211.994 31.743 212.065 31.415 212.278 31.084V31.084C212.603 30.577 213.066 30.203 213.666 29.961 214.264 29.71 214.71 29.678 215.002 29.866V29.866C215.238 30.017 215.325 30.26 215.262 30.593 215.203 30.92 215.141 31.134 215.076 31.235V31.235C215.015 31.331 214.858 31.477 214.605 31.672 214.358 31.871 214.177 32.017 214.062 32.11V32.11C213.942 32.334 213.975 32.653 214.162 33.067 214.353 33.476 214.567 33.947 214.804 34.48 215.038 35.019 215.177 35.594 215.223 36.203 215.274 36.816 215.1 37.434 214.699 38.059V38.059C214.338 38.621 213.843 39.114 213.214 39.536 212.586 39.959 211.982 40.342 211.404 40.685 210.826 41.029 210.418 41.387 210.18 41.758V41.758C210.003 42.033 209.96 42.26 210.052 42.439 210.141 42.622 210.281 42.776 210.472 42.899V42.899C210.944 43.202 211.524 43.375 212.211 43.419 212.901 43.457 213.631 43.409 214.4 43.276 215.178 43.14 215.913 42.941 216.606 42.679 217.295 42.422 217.867 42.15 218.322 41.862V41.862L218.689 42.848C217.78 43.448 216.714 43.927 215.491 44.286 214.271 44.639 213.068 44.8 211.881 44.768 210.688 44.733 209.653 44.434 208.775 43.871ZM228.054 60.503V60.503C227.215 59.631 226.799 58.654 226.806 57.571 226.808 56.494 227.367 55.417 228.485 54.342V54.342C229.304 53.554 230.258 52.941 231.349 52.504 232.44 52.066 233.556 51.814 234.697 51.746 235.837 51.678 236.908 51.798 237.909 52.105 238.915 52.408 239.747 52.902 240.405 53.586V53.586C241.077 54.284 241.385 54.957 241.33 55.603 241.28 56.255 241.021 56.805 240.554 57.255V57.255C240.087 57.704 239.523 58.029 238.862 58.229 238.201 58.429 237.685 58.336 237.314 57.951V57.951C237.008 57.633 236.919 57.222 237.047 56.719V56.719C237.32 56.772 237.706 56.739 238.205 56.621 238.699 56.498 239.196 56.196 239.697 55.714V55.714C239.832 55.584 239.903 55.45 239.911 55.313 239.923 55.172 239.841 55.01 239.665 54.827V54.827C239.262 54.408 238.652 54.15 237.836 54.054 237.02 53.958 236.126 53.997 235.153 54.172 234.186 54.352 233.254 54.637 232.357 55.026 231.466 55.42 230.745 55.882 230.196 56.41V56.41C229.729 56.86 229.414 57.395 229.251 58.016 229.097 58.637 229.356 59.296 230.028 59.995V59.995C230.64 60.63 231.458 61.114 232.482 61.446 233.506 61.778 234.638 61.927 235.877 61.894 237.116 61.861 238.372 61.585 239.644 61.066V61.066L239.668 62.003C238.268 62.581 236.829 62.898 235.353 62.955 233.877 63.002 232.496 62.819 231.208 62.407 229.921 61.985 228.87 61.35 228.054 60.503ZM245.076 80.068V80.068C244.545 79.201 244.404 78.394 244.652 77.647 244.896 76.894 245.386 76.292 246.122 75.842V75.842C246.572 75.567 247.194 75.296 247.987 75.03 248.775 74.767 249.635 74.546 250.567 74.367 251.506 74.185 252.427 74.076 253.33 74.04 254.227 74.008 255.022 74.078 255.715 74.249 256.402 74.424 256.88 74.731 257.148 75.17V75.17C257.291 75.404 257.35 75.654 257.325 75.92 257.296 76.181 257.134 76.402 256.837 76.583V76.583C256.581 76.74 256.102 76.822 255.4 76.828 254.699 76.834 253.888 76.841 252.967 76.848 252.047 76.855 251.131 76.926 250.218 77.061 249.315 77.199 248.538 77.466 247.888 77.864V77.864C247.256 78.252 246.903 78.624 246.832 78.981 246.763 79.329 246.863 79.722 247.131 80.161V80.161C247.543 80.834 248.326 81.358 249.48 81.733 250.638 82.113 252.315 82.216 254.511 82.039V82.039L254.313 82.772C252.152 83.146 250.259 83.094 248.634 82.616 247.012 82.143 245.826 81.293 245.076 80.068ZM260.582 75.384V75.384C260.352 75.008 260.239 74.611 260.242 74.194 260.241 73.771 260.438 73.439 260.831 73.198V73.198C261.31 72.905 261.875 72.912 262.525 73.219 263.17 73.53 263.661 73.962 264 74.515V74.515C264.22 74.874 264.328 75.223 264.324 75.563 264.314 75.906 264.101 76.204 263.685 76.459V76.459C263.269 76.714 262.732 76.733 262.075 76.516 261.408 76.298 260.91 75.92 260.582 75.384ZM254.972 100.848V100.848C254.736 100.124 254.772 99.413 255.079 98.715 255.393 98.016 256.033 97.509 256.999 97.195V97.195C257.768 96.945 258.664 96.846 259.687 96.9 260.705 96.963 261.753 97.16 262.831 97.491 263.915 97.82 264.945 98.265 265.922 98.826 266.89 99.383 267.744 100.043 268.485 100.807 269.217 101.567 269.73 102.399 270.024 103.301V103.301C270.332 104.248 270.352 105.131 270.084 105.949 269.809 106.769 269.278 107.308 268.49 107.564V107.564C267.892 107.758 267.392 107.689 266.988 107.356 266.591 107.022 266.354 106.551 266.276 105.943V105.943C266.487 105.924 266.7 105.897 266.914 105.862 267.121 105.83 267.333 105.779 267.549 105.709V105.709C267.994 105.564 268.363 105.349 268.657 105.064 268.955 104.77 269.011 104.337 268.825 103.765V103.765C268.624 103.148 268.21 102.587 267.582 102.082 266.955 101.582 266.21 101.15 265.346 100.784 264.482 100.419 263.574 100.134 262.623 99.931 261.664 99.729 260.758 99.623 259.905 99.613 259.049 99.596 258.312 99.688 257.696 99.888V99.888C256.99 100.118 256.72 100.487 256.886 100.995V100.995C257.051 101.504 257.482 101.986 258.178 102.441 258.875 102.896 259.7 103.317 260.655 103.702 261.607 104.081 262.568 104.429 263.536 104.747 264.505 105.071 265.331 105.351 266.012 105.586V105.586C266.149 105.619 266.235 105.689 266.27 105.798V105.798C266.274 105.895 266.279 106.083 266.285 106.362 266.292 106.641 266.254 106.913 266.172 107.179 266.085 107.453 265.921 107.63 265.679 107.708V107.708C265.463 107.779 265.154 107.777 264.751 107.705 264.345 107.626 263.898 107.525 263.408 107.403 262.919 107.281 262.441 107.194 261.974 107.142 261.505 107.084 261.083 107.116 260.708 107.238V107.238C260.422 107.331 260.178 107.498 259.975 107.74 259.771 107.975 259.725 108.267 259.839 108.617V108.617C260.013 109.151 260.645 109.767 261.737 110.466 262.831 111.172 264.477 111.716 266.675 112.097V112.097L266.25 112.931C264.89 112.79 263.632 112.5 262.477 112.06 261.322 111.621 260.351 111.076 259.563 110.425 258.783 109.779 258.257 109.037 257.984 108.198V108.198C257.69 107.295 257.758 106.531 258.188 105.907 258.617 105.282 259.155 104.84 259.802 104.58V104.58C259.846 104.566 259.881 104.555 259.907 104.546 259.926 104.54 259.948 104.533 259.973 104.525V104.525C258.625 103.986 257.522 103.449 256.666 102.912 255.809 102.375 255.245 101.687 254.972 100.848Z" fill="#0080ff" data-fill-palette-color="primary"></path><path d="M4.181 144.565c0-5.286 4.285-9.571 9.571-9.571 5.286 0 9.571 4.285 9.571 9.571 0 5.286-4.285 9.571-9.571 9.571-5.286 0-9.571-4.285-9.571-9.571zM256.59 144.565c0-5.286 4.285-9.571 9.572-9.571 5.286 0 9.571 4.285 9.571 9.571 0 5.286-4.285 9.571-9.571 9.571-5.286 0-9.571-4.285-9.572-9.571z" fill="#0080ff" data-fill-palette-color="primary"></path></svg></g></svg></g></svg></g></svg></g><defs></defs></svg><rect width="279.72" height="279.72" fill="none" stroke="none" visibility="hidden"></rect></g></svg></g></svg>